<svg version="1.0" xmlns="http://www.w3.org/2000/svg" viewBox="0 0 200 200"><path d="M89.9 2c-24.8 3.1-51 17-65.3 34.9A102 102 0 002.5 85.4a75.5 75.5 0 000 29.2c2.4 13.5 5.2 22 10.7 31.9a91.8 91.8 0 0019.4 25.4 96.7 96.7 0 00114.5 14.5l7.6-4.3 11.4 4.3c17 6.4 25.4 9 27.4 8.2 2.4-.9 1.6-4.4-5.6-23.4l-5.9-15.9 4.9-8.9a94.5 94.5 0 0010.6-31.8c1.9-11.2 1.9-18 0-29.2a98 98 0 00-53.7-73.1A101.4 101.4 0 0089.9 2zM119 39.9a69.7 69.7 0 0131.3 21.8c1.5 1.8 2.7 3.7 2.7 4.3 0 .5.4 1 .8 1 1.2 0 7 14.9 8.2 20.9a79.5 79.5 0 01-.1 25.3c-1.5 7-6.9 19.6-10 23.3a73.3 73.3 0 01-17.6 16.6 52.6 52.6 0 01-31.3 9.6 55 55 0 01-30.6-5.7c-3.4-1.7-6.8-3-7.5-3-.8 0-5.6 1.6-10.8 3.5-10.5 3.9-12.3 4.2-14.1 2-1.4-1.7-1.3-2.2 3.8-16.5l2.7-7.5-3.6-8.5c-2-4.7-4.2-10.9-4.8-13.8a79.5 79.5 0 01-.1-25.3c1.2-6 7-20.9 8.2-20.9.4 0 .8-.5.8-1a12 12 0 012.8-4.3A66 66 0 0188.3 38c7.8-1.4 23.2-.4 30.7 1.9z" fill="#ea4335"/></svg>
