<svg xmlns="http://www.w3.org/2000/svg" viewBox="0 0 200 200" version="1.0"><path fill="#ea4335" d="M89.9 2c-24.8 3.1-51 17-65.3 34.9A102 102 0 002.5 85.4a75.5 75.5 0 000 29.2c2.4 13.5 5.2 22 10.7 31.9 5 9.5 11.5 18.1 19.4 25.4a96.7 96.7 0 00114.5 14.5l7.6-4.3 38.8 12.5-11.5-39.3 4.9-8.9c5.4-9.9 9-20.7 10.6-31.8 1.9-11.2 1.9-18 0-29.2a98 98 0 00-53.7-73.1A101.4 101.4 0 0089.9 2zM119 39.9a69.7 69.7 0 0131.3 21.8A81 81 0 01162 87.9c1.3 8.4 1.3 17-.1 25.3-1.5 7-6.9 19.6-10 23.3-5 6.5-10.9 12-17.6 16.6a52.6 52.6 0 01-31.3 9.6 55 55 0 01-30.6-5.7c-3.4-1.7-6.8-3-7.5-3L40 159.5l6.5-24C38.9 119.9 34 105.7 38 87.9A62 62 0 0188.3 38c7.8-1.4 23.2-.4 30.7 1.9z"/></svg>
